# xmcd
#
# Track frame offsets: 
#        150
#        16281
#        33174
#        46974
#        64551
#        77696
#        92004
#        110584
#        132274
#        151666
#
# Disc length: 2293 seconds
#
# Revision: 0
# Processed by: cddbd v1.5.2PL0 Copyright (c) Steve Scherf et al.
# Submitted via: ExactAudioCopy v1.3
#
DISCID=6d08f30a
DTITLE=Maggie Bell - Suicide Sal
DYEAR=1975
DGENRE=Blues Rock
TTITLE0=Wishing Well
TTITLE1=Suicide Sal
TTITLE2=I Was In Chains
TTITLE3=If You Don't Know
TTITLE4=What You Got
TTITLE5=In My Life
TTITLE6=Coming On Strong
TTITLE7=Hold On
TTITLE8=I Saw Him Standing There
TTITLE9=It's Been So Long
EXTD=
EXTT0=
EXTT1=
EXTT2=
EXTT3=
EXTT4=
EXTT5=
EXTT6=
EXTT7=
EXTT8=
EXTT9=
PLAYORDER=
